<mxfile host="app.diagrams.net" modified="2022-01-03T02:36:00.821Z" agent="5.0 (Macintosh; Intel Mac OS X 10_15_7) AppleWebKit/605.1.15 (KHTML, like Gecko) Version/14.1.2 Safari/605.1.15" etag="tgxmhwzq4x8Bb8bNRSZR" version="16.1.2" type="github">
  <diagram id="PzMQwgZH61W-v_o5VqI9" name="Page-1">
    <mxGraphModel dx="830" dy="1704" grid="1" gridSize="10" guides="1" tooltips="1" connect="1" arrows="1" fold="1" page="1" pageScale="1" pageWidth="827" pageHeight="1169" math="0" shadow="0">
      <root>
        <mxCell id="0" />
        <mxCell id="1" parent="0" />
        <mxCell id="yPbjjpISHQn_7yHVADGY-6" style="edgeStyle=orthogonalEdgeStyle;rounded=0;orthogonalLoop=1;jettySize=auto;html=1;exitX=0;exitY=0.75;exitDx=0;exitDy=0;fontSize=16;entryX=1;entryY=0.25;entryDx=0;entryDy=0;" edge="1" parent="1" source="yPbjjpISHQn_7yHVADGY-2" target="yPbjjpISHQn_7yHVADGY-4">
          <mxGeometry relative="1" as="geometry">
            <mxPoint x="570" y="-1060" as="targetPoint" />
          </mxGeometry>
        </mxCell>
        <mxCell id="yPbjjpISHQn_7yHVADGY-2" value="&lt;b&gt;&lt;font style=&quot;font-size: 16px&quot;&gt;로그인&lt;/font&gt;&lt;/b&gt;" style="rounded=0;whiteSpace=wrap;html=1;" vertex="1" parent="1">
          <mxGeometry x="610" y="-1110" width="170" height="60" as="geometry" />
        </mxCell>
        <mxCell id="yPbjjpISHQn_7yHVADGY-3" value="&lt;font size=&quot;3&quot;&gt;&lt;b&gt;메인페이지&lt;/b&gt;&lt;/font&gt;" style="rounded=0;whiteSpace=wrap;html=1;" vertex="1" parent="1">
          <mxGeometry x="250" y="-920" width="211" height="60" as="geometry" />
        </mxCell>
        <mxCell id="yPbjjpISHQn_7yHVADGY-4" value="&lt;font size=&quot;3&quot;&gt;&lt;b&gt;네비게이션바&lt;/b&gt;&lt;/font&gt;" style="rounded=0;whiteSpace=wrap;html=1;" vertex="1" parent="1">
          <mxGeometry x="250" y="-980" width="211" height="60" as="geometry" />
        </mxCell>
        <mxCell id="yPbjjpISHQn_7yHVADGY-5" value="&lt;font size=&quot;3&quot;&gt;&lt;b&gt;푸터&lt;/b&gt;&lt;/font&gt;" style="rounded=0;whiteSpace=wrap;html=1;" vertex="1" parent="1">
          <mxGeometry x="250" y="-860" width="211" height="40" as="geometry" />
        </mxCell>
      </root>
    </mxGraphModel>
  </diagram>
</mxfile>
